<?xml version="1.0" encoding="utf-8"?>
<!-- Generator: Adobe Illustrator 24.0.1, SVG Export Plug-In . SVG Version: 6.00 Build 0)  -->
<svg version="1.1" id="icon-0" 
	 xmlns="http://www.w3.org/2000/svg" xmlns:xlink="http://www.w3.org/1999/xlink" x="0px" y="0px" viewBox="0 0 792 326"
	 style="enable-background:new 0 0 792 326;" xml:space="preserve">
<style type="text/css">
	.st0{display:none;fill:none;}
</style>
<g transform="matrix(0.7,0,0,0.7,149.57575757756427,385.1037390967685)">
	<g id="tight-bounds" transform="matrix(1,0,0,1,0.24000000102216745,0.054503124652001134)">
		<g>
			<g>
				<path id="o-0" d="M244.8-475.6L244.8-475.6c3.7,0,6.8,4.5,6.8,10v307.8c0,5.5-3,10-6.8,10h0c-3.7,0-6.8-4.5-6.8-10v-307.8
					C238-471.2,241.1-475.6,244.8-475.6z"/>
			</g>
			<g transform="matrix(1,0,0,1,265.8446311382239,0.4999999999999858)">
				<g id="textblocktransform">
					<g>
						<g transform="matrix(1,0,0,1,0,0)">
							<g id="text-0">
								<path d="M45.8-320.7H22.1c-0.6,0-0.8-0.3-0.8-1l0,0l0.4-144.2c0-0.6,0.3-0.8,0.8-0.8l0,0h42.4c7.6,0,14.5,1.8,20.9,5.5
									c6.3,3.7,11.4,8.7,15.2,14.9c3.8,6.2,5.7,13.3,5.7,21.1l0,0c0,5.2-0.8,9.8-2.3,13.9c-1.5,4.1-3.4,7.7-5.5,10.5
									c-2.1,2.9-4,5-5.7,6.4l0,0c7.6,8.4,11.3,18.3,11.3,29.6l0,0l0.2,43c0,0.7-0.3,1-1,1l0,0H80c-0.6,0-0.8-0.2-0.8-0.6l0,0
									v-43.4c0-5-1.8-9.4-5.3-13.1c-3.6-3.7-8-5.5-13.1-5.5l0,0H46.9l-0.2,61.7C46.7-321,46.4-320.7,45.8-320.7z M46.9-441.5v32.9
									h18c4.3,0,8.2-1.6,11.5-4.8c3.4-3.2,5-7.1,5-11.8l0,0c0-4.5-1.6-8.3-4.9-11.5c-3.3-3.2-7.2-4.8-11.7-4.8l0,0L46.9-441.5z
									 M161-318.6L161-318.6c-7.4,0-14.3-1.9-20.6-5.8c-6.3-3.8-11.3-9-15-15.4c-3.7-6.4-5.6-13.5-5.6-21.2l0,0l0.4-104.9
									c0-0.6,0.3-0.8,0.8-0.8l0,0h23.5c0.6,0,0.8,0.3,0.8,0.8l0,0V-361c0,4.8,1.5,8.8,4.5,12c3,3.3,6.7,5,11,5l0,0
									c4.5,0,8.2-1.6,11.2-5c3-3.3,4.5-7.3,4.5-12l0,0v-104.9c0-0.6,0.3-0.8,0.8-0.8l0,0h23.5c0.6,0,0.8,0.3,0.8,0.8l0,0
									l0.4,104.9c0,7.8-1.8,15-5.5,21.4c-3.7,6.4-8.7,11.5-14.9,15.3C175.7-320.5,168.7-318.6,161-318.6L161-318.6z M257.5-318.6
									L257.5-318.6c-7.7,0-14.6-1.9-20.9-5.8c-6.2-3.8-11.2-9-14.8-15.4c-3.6-6.4-5.5-13.6-5.5-21.6l0,0l0.2-65.5
									c0-7.7,1.8-14.7,5.4-21.1c3.6-6.3,8.4-11.5,14.7-15.3c6.2-3.8,13.2-5.7,20.9-5.7l0,0c7.7,0,14.6,1.9,20.8,5.7
									c6.2,3.8,11.1,8.8,14.7,15.2c3.6,6.4,5.5,13.5,5.5,21.3l0,0v9.7c0,0.6-0.3,0.8-0.8,0.8l0,0h-23.5c-0.6,0-0.8-0.3-0.8-0.8
									l0,0v-9.7c0-4.6-1.5-8.6-4.5-12c-3-3.4-6.8-5-11.2-5l0,0c-5,0-8.9,1.7-11.5,5.1c-2.7,3.4-4,7.4-4,11.9l0,0v65.5
									c0,5.2,1.5,9.4,4.5,12.6c3,3.2,6.7,4.8,11,4.8l0,0c4.5,0,8.2-1.8,11.2-5.4c3-3.6,4.5-7.6,4.5-12l0,0v-9.7
									c0-0.6,0.3-0.8,0.8-0.8l0,0h23.7c0.6,0,0.8,0.3,0.8,0.8l0,0v9.7c0,8-1.8,15.2-5.5,21.6c-3.7,6.4-8.7,11.6-14.8,15.4
									C272.2-320.5,265.2-318.6,257.5-318.6L257.5-318.6z M338.5-320.7h-23.7c-0.6,0-0.8-0.3-0.8-1l0,0l0.4-144c0-0.7,0.3-1,0.8-1
									l0,0h23.5c0.6,0,0.8,0.3,0.8,1l0,0v49.7l32.9-49.9c0.4-0.6,0.9-0.8,1.5-0.8l0,0h24.1c0.6,0,0.7,0.3,0.4,0.8l0,0L362.3-408
									l40.7,86.5c0.3,0.6-0.1,0.8-1,0.8l0,0h-25.6c-0.7,0-1.1-0.3-1.3-0.8l0,0l-28.3-61.7l-7.3,11.5v49.9
									C339.4-321,339.1-320.7,338.5-320.7L338.5-320.7z M451-318.6L451-318.6c-7.4,0-14.3-1.9-20.6-5.8c-6.3-3.8-11.3-9-15-15.4
									c-3.7-6.4-5.5-13.5-5.5-21.2l0,0l0.4-104.9c0-0.6,0.3-0.8,0.8-0.8l0,0h23.5c0.6,0,0.8,0.3,0.8,0.8l0,0V-361
									c0,4.8,1.5,8.8,4.5,12c3,3.3,6.7,5,11,5l0,0c4.5,0,8.2-1.6,11.2-5c3-3.3,4.5-7.3,4.5-12l0,0v-104.9c0-0.6,0.3-0.8,0.8-0.8
									l0,0h23.5c0.6,0,0.8,0.3,0.8,0.8l0,0l0.4,104.9c0,7.8-1.8,15-5.5,21.4c-3.7,6.4-8.7,11.5-14.9,15.3
									C465.7-320.5,458.7-318.6,451-318.6L451-318.6z M544.6-318.6L544.6-318.6c-7.6,0-14.4-1.9-20.6-5.8
									c-6.2-3.8-11.2-8.9-14.9-15.3c-3.7-6.3-5.6-13.4-5.6-21.1l0,0v-9.7c0-0.7,0.3-1,1-1l0,0H528c0.6,0,0.8,0.3,0.8,1l0,0v9.7
									c0,4.6,1.5,8.6,4.6,11.8c3.1,3.3,6.8,5,11.1,5l0,0c4.3,0,8-1.7,11.1-5c3.1-3.4,4.6-7.3,4.6-11.8l0,0
									c0-5.2-3.4-9.7-10.1-13.4l0,0c-2.2-1.3-5.7-3.2-10.5-5.9c-4.8-2.7-9.2-5.2-13.4-7.6l0,0c-7.7-4.5-13.4-10.1-17.1-16.9
									c-3.7-6.8-5.6-14.4-5.6-23l0,0c0-7.8,1.9-14.9,5.7-21.1c3.8-6.2,8.8-11.1,15-14.8c6.2-3.6,13-5.5,20.2-5.5l0,0
									c7.4,0,14.2,1.8,20.4,5.5c6.2,3.7,11.2,8.7,14.9,14.9c3.7,6.2,5.5,13.2,5.5,20.9l0,0v17.2c0,0.6-0.3,0.8-0.8,0.8l0,0h-23.5
									c-0.6,0-0.8-0.3-0.8-0.8l0,0l-0.2-17.2c0-4.9-1.5-8.9-4.6-12c-3.1-3.1-6.7-4.6-10.9-4.6l0,0c-4.3,0-8,1.6-11.1,4.9
									c-3.1,3.3-4.6,7.2-4.6,11.7l0,0c0,4.6,1,8.5,2.9,11.5c2,3.1,5.5,6,10.7,8.8l0,0c0.7,0.4,2.1,1.1,4.1,2.2
									c2,1.1,4.2,2.3,6.6,3.6c2.4,1.3,4.5,2.5,6.4,3.5c1.9,1,3,1.6,3.4,1.9l0,0c7,3.9,12.5,8.7,16.6,14.4
									c4.1,5.7,6.1,12.6,6.1,20.9l0,0c0,8-1.8,15.2-5.5,21.5c-3.7,6.3-8.7,11.4-14.9,15.1C559.1-320.4,552.2-318.6,544.6-318.6
									L544.6-318.6z"/>
								<path d="M45.8-157.6H22.1c-0.6,0-0.8-0.3-0.8-1l0,0l0.4-144.2c0-0.6,0.3-0.8,0.8-0.8l0,0h42.4c7.6,0,14.5,1.8,20.9,5.5
									c6.3,3.7,11.4,8.7,15.2,14.9c3.8,6.2,5.7,13.3,5.7,21.1l0,0c0,5.2-0.8,9.8-2.3,13.9c-1.5,4.1-3.4,7.7-5.5,10.5
									c-2.1,2.9-4,5-5.7,6.4l0,0c7.6,8.4,11.3,18.3,11.3,29.6l0,0l0.2,43c0,0.7-0.3,1-1,1l0,0H80c-0.6,0-0.8-0.2-0.8-0.6l0,0
									v-43.4c0-5-1.8-9.4-5.3-13.1c-3.6-3.7-8-5.5-13.1-5.5l0,0H46.9l-0.2,61.7C46.7-158,46.4-157.6,45.8-157.6L45.8-157.6z
									 M46.9-278.5v32.9h18c4.3,0,8.2-1.6,11.5-4.8c3.4-3.2,5-7.1,5-11.8l0,0c0-4.5-1.6-8.3-4.9-11.5c-3.3-3.2-7.2-4.8-11.7-4.8
									l0,0H46.9z M161-155.5L161-155.5c-7.4,0-14.3-1.9-20.6-5.8c-6.3-3.8-11.3-9-15-15.4c-3.7-6.4-5.6-13.5-5.6-21.2l0,0
									l0.4-104.9c0-0.6,0.3-0.8,0.8-0.8l0,0h23.5c0.6,0,0.8,0.3,0.8,0.8l0,0v104.9c0,4.8,1.5,8.8,4.5,12c3,3.3,6.7,5,11,5l0,0
									c4.5,0,8.2-1.6,11.2-5c3-3.3,4.5-7.3,4.5-12l0,0v-104.9c0-0.6,0.3-0.8,0.8-0.8l0,0h23.5c0.6,0,0.8,0.3,0.8,0.8l0,0
									l0.4,104.9c0,7.8-1.8,15-5.5,21.4c-3.7,6.4-8.7,11.5-14.9,15.3C175.7-157.4,168.7-155.5,161-155.5L161-155.5z M243.5-157.6
									h-23.7c-0.6,0-0.8-0.3-0.8-1l0,0l0.4-144.2c0-0.6,0.3-0.8,0.8-0.8l0,0h25.6c0.6,0,1,0.3,1.5,0.8l0,0l19.1,27.7l19.1-27.7
									c0.4-0.6,0.9-0.8,1.5-0.8l0,0h25.8c0.6,0,0.8,0.3,0.8,0.8l0,0l0.4,144.2c0,0.7-0.3,1-0.8,1l0,0h-23.7c-0.6,0-0.8-0.3-0.8-1
									l0,0l-0.2-107l-22,31.9l-21.8-31.9l-0.2,107C244.3-158,244-157.6,243.5-157.6L243.5-157.6z M356.2-157.6h-23.7
									c-0.6,0-0.8-0.3-0.8-1l0,0l0.4-144.2c0-0.6,0.3-0.8,0.8-0.8l0,0h25.6c0.6,0,1,0.3,1.5,0.8l0,0l19.1,27.7l19.1-27.7
									c0.4-0.6,0.9-0.8,1.5-0.8l0,0h25.8c0.6,0,0.8,0.3,0.8,0.8l0,0l0.4,144.2c0,0.7-0.3,1-0.8,1l0,0h-23.7c-0.6,0-0.8-0.3-0.8-1
									l0,0l-0.2-107l-22,31.9l-21.8-31.9l-0.2,107C357-158,356.7-157.6,356.2-157.6z M487.9-157.6h-24.1c-0.4,0-0.6-0.3-0.6-0.8
									l0,0l0.2-59.6l-28.1-84.8c-0.1-0.6,0.1-0.8,0.6-0.8l0,0h23.3c0.7,0,1.1,0.3,1.3,0.8l0,0l15.5,56.4l15.7-56.4
									c0.1-0.6,0.5-0.8,1-0.8l0,0h23.5c0.6,0,0.8,0.3,0.6,0.8l0,0l-28.3,83.9l0.2,60.4C488.8-157.9,488.5-157.6,487.9-157.6
									L487.9-157.6z"/>
							</g>
						</g>
					</g>
				</g>
			</g>
			<g transform="matrix(1,0,0,1,0,7.198868665513061)">
				<g>
					<g>
						<g>
							<g>
								<path d="M42.4-268.4c-0.7,0-1.4-0.2-2-0.6c-1.1-0.7-1.8-1.8-2-3.1l-5.6-66.8c-0.2-1.7,0.8-3.3,2.3-3.9l61.2-27.8
									c1.2-0.6,2.6-0.5,3.7,0.2s1.8,1.8,2,3.1l5.6,66.8c0.2,1.7-0.8,3.3-2.3,3.9L44-268.8C43.5-268.5,42.9-268.4,42.4-268.4z
									 M41-336.7l4.9,58.4l53.5-24.3l-4.9-58.4L41-336.7z"/>
							</g>
							<g>
								<g>
									<path d="M85.7-168.4c-4.3,0-8.5-1-12.4-3l-120.1-60c-13.7-6.9-19.3-23.6-12.4-37.3l93.5-187c3.3-6.7,9.1-11.7,16.3-14
										c7.1-2.3,14.8-1.7,21.4,1.8l115.5,59.9c13.4,6.9,18.8,23,12.3,36.6l-88.9,187.2c-3.2,6.8-8.9,11.9-16.1,14.4
										C91.8-168.9,88.8-168.4,85.7-168.4z M59.2-455.1c-1.2,0-2.5,0.2-3.7,0.6c-3,1-5.5,3.1-6.9,6l-93.5,187
										c-2.9,5.9-0.6,13,5.3,15.9l120.1,60c2.9,1.4,6.1,1.6,9.2,0.6s5.5-3.2,6.9-6.1l88.9-187.2c2.8-5.8,0.4-12.7-5.3-15.6
										L64.7-453.8C62.9-454.7,61.1-455.1,59.2-455.1z"/>
								</g>
								<g>
									<path d="M-36.1-166.8c-2.8,0-5.7-0.5-8.5-1.5c-6.1-2.3-11-6.8-13.8-12.7l-85.4-185c-6.3-13.5-0.8-29.5,12.4-36.4
										l115.5-59.9c6.7-3.5,14.4-4.1,21.5-1.7c7.2,2.4,13,7.4,16.3,14.2l10.6,21.7c1.9,3.9,0.3,8.7-3.7,10.6
										c-4,2-8.7,0.3-10.6-3.7L7.6-442.8c-1.4-2.9-3.9-5.1-6.9-6.1c-3.1-1-6.3-0.8-9.2,0.7l-115.4,59.9c-5.7,2.9-8,9.7-5.3,15.5
										l85.4,185c1,2.1,2.7,3.6,4.8,4.4c2.2,0.8,4.5,0.7,6.5-0.3l57.4-26.7c4-1.8,8.7-0.1,10.6,3.9c1.8,4,0.1,8.7-3.9,10.6
										l-57.4,26.7C-29.2-167.6-32.6-166.8-36.1-166.8z"/>
								</g>
							</g>
						</g>
					</g>
				</g>
			</g>
		</g>
		<rect x="-146.3" y="-475.6" class="st0" width="997.9" height="327.7"/>
	</g>
</g>
</svg>
